<svg width="126" height="26" viewBox="0 0 126 26" fill="none" xmlns="http://www.w3.org/2000/svg">
<path d="M0.82 24.388C1.348 24.388 1.78 24.352 2.116 24.28C2.452 24.208 2.728 24.076 2.944 23.884C3.16 23.692 3.34 23.416 3.484 23.056C3.628 22.672 3.796 22.192 3.988 21.616C5.02 18.112 6.064 14.62 7.12 11.14C8.176 7.636 9.232 4.132 10.288 0.627998H11.512L19.18 24.388H20.764V25H12.16V24.388H14.572L12.268 17.152H6.004L5.752 17.872C5.632 18.232 5.488 18.688 5.32 19.24C5.152 19.792 4.984 20.344 4.816 20.896C4.672 21.448 4.54 21.952 4.42 22.408C4.3 22.864 4.24 23.176 4.24 23.344C4.24 23.632 4.348 23.848 4.564 23.992C4.804 24.136 5.08 24.244 5.392 24.316C5.704 24.364 6.016 24.388 6.328 24.388C6.664 24.388 6.928 24.388 7.12 24.388H7.192V25H0.82V24.388ZM6.184 16.54H12.088L9.064 7.108L6.184 16.54ZM42.4768 1.6H41.9008C41.4208 1.6 41.0248 1.612 40.7128 1.636C40.4248 1.66 40.1848 1.768 39.9928 1.96C39.8248 2.128 39.7048 2.416 39.6328 2.824C39.5848 3.232 39.5608 3.808 39.5608 4.552V16.828C39.5608 19.948 38.9248 22.18 37.6528 23.524C36.4048 24.844 34.5208 25.504 32.0008 25.504C31.2088 25.504 30.3328 25.444 29.3728 25.324C28.4368 25.204 27.5368 24.964 26.6728 24.604C25.8328 24.22 25.0888 23.692 24.4408 23.02C23.8168 22.348 23.4328 21.46 23.2888 20.356C23.2408 20.092 23.2168 19.756 23.2168 19.348C23.2168 18.94 23.2168 18.496 23.2168 18.016V1.6H20.9488V0.987998H30.0568V1.6H27.7528V17.116C27.7528 18.22 27.8128 19.24 27.9328 20.176C28.0768 21.088 28.3288 21.88 28.6888 22.552C29.0728 23.224 29.5888 23.752 30.2368 24.136C30.8848 24.52 31.7128 24.712 32.7208 24.712C33.8248 24.712 34.7608 24.52 35.5288 24.136C36.3208 23.728 36.9448 23.164 37.4008 22.444C37.8808 21.7 38.2288 20.812 38.4448 19.78C38.6608 18.724 38.7688 17.56 38.7688 16.288V4.552C38.7688 3.784 38.7208 3.196 38.6248 2.788C38.5528 2.38 38.4208 2.08 38.2288 1.888C38.0368 1.696 37.7848 1.588 37.4728 1.564C37.1608 1.54 36.7768 1.54 36.3208 1.564C36.2008 1.564 36.0688 1.576 35.9248 1.6C35.8048 1.6 35.6608 1.6 35.4928 1.6V0.987998H42.4768V1.6ZM49.6425 24.388H51.8385V25H43.7025V24.388H45.6825V1.6H43.7025V0.987998H54.1065C54.8985 0.987998 55.6785 1.084 56.4465 1.276C57.2145 1.468 57.8865 1.792 58.4625 2.248C59.0625 2.68 59.5425 3.268 59.9025 4.012C60.2865 4.732 60.4785 5.644 60.4785 6.748C60.4785 7.588 60.3465 8.32 60.0825 8.944C59.8425 9.568 59.5065 10.108 59.0745 10.564C58.6425 10.996 58.1385 11.356 57.5625 11.644C56.9865 11.932 56.3745 12.148 55.7265 12.292V12.688C56.7345 12.952 57.5145 13.384 58.0665 13.984C58.6425 14.56 59.0745 15.22 59.3625 15.964C59.6505 16.708 59.8305 17.5 59.9025 18.34C59.9745 19.156 60.0225 19.936 60.0465 20.68C60.0705 21.208 60.0945 21.712 60.1185 22.192C60.1665 22.648 60.2385 23.056 60.3345 23.416C60.4305 23.752 60.5745 24.028 60.7665 24.244C60.9585 24.436 61.2225 24.532 61.5585 24.532C61.7745 24.532 61.9785 24.508 62.1705 24.46C62.3625 24.388 62.5545 24.316 62.7465 24.244C62.7705 24.244 62.7945 24.232 62.8185 24.208L63.0345 24.748C62.6265 24.94 62.2185 25.072 61.8105 25.144C61.4265 25.216 61.0305 25.252 60.6225 25.252C59.5665 25.252 58.7385 25.096 58.1385 24.784C57.5385 24.472 57.0705 24.04 56.7345 23.488C56.4225 22.936 56.2065 22.276 56.0865 21.508C55.9905 20.74 55.9065 19.888 55.8345 18.952C55.8105 18.664 55.7865 18.364 55.7625 18.052C55.7385 17.74 55.7025 17.416 55.6545 17.08C55.5345 16.048 55.2825 15.244 54.8985 14.668C54.5385 14.092 54.0825 13.672 53.5305 13.408C53.0025 13.12 52.4025 12.952 51.7305 12.904C51.0585 12.832 50.3625 12.796 49.6425 12.796V24.388ZM49.6425 1.6V12.22H50.7945C51.4665 12.22 52.1265 12.124 52.7745 11.932C53.4465 11.74 54.0345 11.44 54.5385 11.032C55.0425 10.6 55.4505 10.06 55.7625 9.412C56.0745 8.74 56.2305 7.924 56.2305 6.964C56.2305 5.884 56.0865 4.996 55.7985 4.3C55.5105 3.604 55.1145 3.064 54.6105 2.68C54.1065 2.272 53.5185 1.996 52.8465 1.852C52.1745 1.684 51.4545 1.6 50.6865 1.6H49.6425ZM74.5548 0.52C75.9228 0.52 77.1708 0.891999 78.2988 1.636C79.4508 2.356 80.4348 3.316 81.2508 4.516C82.0908 5.692 82.7388 7.036 83.1948 8.548C83.6508 10.036 83.8788 11.536 83.8788 13.048C83.8788 14.584 83.6508 16.096 83.1948 17.584C82.7388 19.048 82.0908 20.368 81.2508 21.544C80.4348 22.696 79.4508 23.632 78.2988 24.352C77.1708 25.072 75.9228 25.432 74.5548 25.432C73.1628 25.432 71.8908 25.072 70.7388 24.352C69.5868 23.608 68.6028 22.636 67.7868 21.436C66.9708 20.236 66.3348 18.88 65.8788 17.368C65.4228 15.856 65.1948 14.32 65.1948 12.76C65.1948 11.272 65.4348 9.796 65.9148 8.332C66.4188 6.868 67.0908 5.56 67.9308 4.408C68.7948 3.256 69.7908 2.32 70.9188 1.6C72.0468 0.879999 73.2588 0.52 74.5548 0.52ZM74.6268 1.096C73.8588 1.096 73.1988 1.3 72.6468 1.708C72.0948 2.092 71.6268 2.62 71.2428 3.292C70.8588 3.94 70.5468 4.684 70.3068 5.524C70.0908 6.34 69.9108 7.192 69.7668 8.08C69.6468 8.944 69.5628 9.808 69.5148 10.672C69.4668 11.512 69.4428 12.268 69.4428 12.94C69.4428 13.636 69.4548 14.416 69.4788 15.28C69.5268 16.12 69.6108 16.984 69.7308 17.872C69.8508 18.736 70.0188 19.588 70.2348 20.428C70.4508 21.268 70.7388 22.024 71.0988 22.696C71.4828 23.344 71.9508 23.872 72.5028 24.28C73.0548 24.664 73.7268 24.856 74.5188 24.856C75.3108 24.856 75.9828 24.652 76.5348 24.244C77.0868 23.836 77.5428 23.308 77.9028 22.66C78.2628 21.988 78.5388 21.232 78.7308 20.392C78.9228 19.528 79.0668 18.664 79.1628 17.8C79.2588 16.912 79.3188 16.048 79.3428 15.208C79.3668 14.344 79.3788 13.576 79.3788 12.904C79.3788 12.304 79.3548 11.596 79.3068 10.78C79.2828 9.964 79.2108 9.124 79.0908 8.26C78.9708 7.396 78.8028 6.532 78.5868 5.668C78.3948 4.804 78.1188 4.036 77.7588 3.364C77.3988 2.692 76.9668 2.152 76.4628 1.744C75.9588 1.312 75.3468 1.096 74.6268 1.096ZM92.0409 24.388H94.2369V25H86.1009V24.388H88.0809V1.6H86.1009V0.987998H96.5049C97.2969 0.987998 98.0769 1.084 98.8449 1.276C99.6129 1.468 100.285 1.792 100.861 2.248C101.461 2.68 101.941 3.268 102.301 4.012C102.685 4.732 102.877 5.644 102.877 6.748C102.877 7.588 102.745 8.32 102.481 8.944C102.241 9.568 101.905 10.108 101.473 10.564C101.041 10.996 100.537 11.356 99.9609 11.644C99.3849 11.932 98.7729 12.148 98.1249 12.292V12.688C99.1329 12.952 99.9129 13.384 100.465 13.984C101.041 14.56 101.473 15.22 101.761 15.964C102.049 16.708 102.229 17.5 102.301 18.34C102.373 19.156 102.421 19.936 102.445 20.68C102.469 21.208 102.493 21.712 102.517 22.192C102.565 22.648 102.637 23.056 102.733 23.416C102.829 23.752 102.973 24.028 103.165 24.244C103.357 24.436 103.621 24.532 103.957 24.532C104.173 24.532 104.377 24.508 104.569 24.46C104.761 24.388 104.953 24.316 105.145 24.244C105.169 24.244 105.193 24.232 105.217 24.208L105.433 24.748C105.025 24.94 104.617 25.072 104.209 25.144C103.825 25.216 103.429 25.252 103.021 25.252C101.965 25.252 101.137 25.096 100.537 24.784C99.9369 24.472 99.4689 24.04 99.1329 23.488C98.8209 22.936 98.6049 22.276 98.4849 21.508C98.3889 20.74 98.3049 19.888 98.2329 18.952C98.2089 18.664 98.1849 18.364 98.1609 18.052C98.1369 17.74 98.1009 17.416 98.0529 17.08C97.9329 16.048 97.6809 15.244 97.2969 14.668C96.9369 14.092 96.4809 13.672 95.9289 13.408C95.4009 13.12 94.8009 12.952 94.1289 12.904C93.4569 12.832 92.7609 12.796 92.0409 12.796V24.388ZM92.0409 1.6V12.22H93.1929C93.8649 12.22 94.5249 12.124 95.1729 11.932C95.8449 11.74 96.4329 11.44 96.9369 11.032C97.4409 10.6 97.8489 10.06 98.1609 9.412C98.4729 8.74 98.6289 7.924 98.6289 6.964C98.6289 5.884 98.4849 4.996 98.1969 4.3C97.9089 3.604 97.5129 3.064 97.0089 2.68C96.5049 2.272 95.9169 1.996 95.2449 1.852C94.5729 1.684 93.8529 1.6 93.0849 1.6H92.0409ZM105.937 24.388C106.465 24.388 106.897 24.352 107.233 24.28C107.569 24.208 107.845 24.076 108.061 23.884C108.277 23.692 108.457 23.416 108.601 23.056C108.745 22.672 108.913 22.192 109.105 21.616C110.137 18.112 111.181 14.62 112.237 11.14C113.293 7.636 114.349 4.132 115.405 0.627998H116.629L124.297 24.388H125.881V25H117.277V24.388H119.689L117.385 17.152H111.121L110.869 17.872C110.749 18.232 110.605 18.688 110.437 19.24C110.269 19.792 110.101 20.344 109.933 20.896C109.789 21.448 109.657 21.952 109.537 22.408C109.417 22.864 109.357 23.176 109.357 23.344C109.357 23.632 109.465 23.848 109.681 23.992C109.921 24.136 110.197 24.244 110.509 24.316C110.821 24.364 111.133 24.388 111.445 24.388C111.781 24.388 112.045 24.388 112.237 24.388H112.309V25H105.937V24.388ZM111.301 16.54H117.205L114.181 7.108L111.301 16.54Z" fill="white"/>
</svg>
