<svg width="1002" height="201" viewBox="0 0 1002 201" fill="none" xmlns="http://www.w3.org/2000/svg">
<path d="M0.56 191.104C4.784 191.104 8.24 190.816 10.928 190.24C13.616 189.664 15.824 188.608 17.552 187.072C19.28 185.536 20.72 183.328 21.872 180.448C23.024 177.376 24.368 173.536 25.904 168.928C34.16 140.896 42.512 112.96 50.96 85.12C59.408 57.088 67.856 29.056 76.304 1.02399H86.096L147.44 191.104H160.112V196H91.28V191.104H110.576L92.144 133.216H42.032L40.016 138.976C39.056 141.856 37.904 145.504 36.56 149.92C35.216 154.336 33.872 158.752 32.528 163.168C31.376 167.584 30.32 171.616 29.36 175.264C28.4 178.912 27.92 181.408 27.92 182.752C27.92 185.056 28.784 186.784 30.512 187.936C32.432 189.088 34.64 189.952 37.136 190.528C39.632 190.912 42.128 191.104 44.624 191.104C47.312 191.104 49.424 191.104 50.96 191.104H51.536V196H0.56V191.104ZM43.472 128.32H90.704L66.512 52.864L43.472 128.32ZM333.814 8.79999H329.206C325.366 8.79999 322.198 8.89599 319.702 9.08799C317.398 9.27999 315.478 10.144 313.942 11.68C312.598 13.024 311.638 15.328 311.062 18.592C310.678 21.856 310.486 26.464 310.486 32.416V130.624C310.486 155.584 305.398 173.44 295.222 184.192C285.238 194.752 270.166 200.032 250.006 200.032C243.67 200.032 236.662 199.552 228.982 198.592C221.494 197.632 214.294 195.712 207.382 192.832C200.662 189.76 194.71 185.536 189.526 180.16C184.534 174.784 181.462 167.68 180.31 158.848C179.926 156.736 179.734 154.048 179.734 150.784C179.734 147.52 179.734 143.968 179.734 140.128V8.79999H161.59V3.90398H234.454V8.79999H216.022V132.928C216.022 141.76 216.502 149.92 217.462 157.408C218.614 164.704 220.63 171.04 223.51 176.416C226.582 181.792 230.71 186.016 235.894 189.088C241.078 192.16 247.702 193.696 255.766 193.696C264.598 193.696 272.086 192.16 278.23 189.088C284.566 185.824 289.558 181.312 293.206 175.552C297.046 169.6 299.83 162.496 301.558 154.24C303.286 145.792 304.15 136.48 304.15 126.304V32.416C304.15 26.272 303.766 21.568 302.998 18.304C302.422 15.04 301.366 12.64 299.83 11.104C298.294 9.56799 296.278 8.70399 293.782 8.51199C291.286 8.32 288.214 8.32 284.566 8.51199C283.606 8.51199 282.55 8.60799 281.398 8.79999C280.438 8.79999 279.286 8.79999 277.942 8.79999V3.90398H333.814V8.79999ZM391.14 191.104H408.708V196H343.62V191.104H359.46V8.79999H343.62V3.90398H426.852C433.188 3.90398 439.428 4.67199 445.572 6.20799C451.716 7.74399 457.092 10.336 461.7 13.984C466.5 17.44 470.34 22.144 473.22 28.096C476.292 33.856 477.828 41.152 477.828 49.984C477.828 56.704 476.772 62.56 474.66 67.552C472.74 72.544 470.052 76.864 466.596 80.512C463.14 83.968 459.108 86.848 454.5 89.152C449.892 91.456 444.996 93.184 439.812 94.336V97.504C447.876 99.616 454.116 103.072 458.532 107.872C463.14 112.48 466.596 117.76 468.9 123.712C471.204 129.664 472.644 136 473.22 142.72C473.796 149.248 474.18 155.488 474.372 161.44C474.564 165.664 474.756 169.696 474.948 173.536C475.332 177.184 475.908 180.448 476.676 183.328C477.444 186.016 478.596 188.224 480.132 189.952C481.668 191.488 483.78 192.256 486.468 192.256C488.196 192.256 489.828 192.064 491.364 191.68C492.9 191.104 494.436 190.528 495.972 189.952C496.164 189.952 496.356 189.856 496.548 189.664L498.276 193.984C495.012 195.52 491.748 196.576 488.484 197.152C485.412 197.728 482.244 198.016 478.98 198.016C470.532 198.016 463.908 196.768 459.108 194.272C454.308 191.776 450.564 188.32 447.876 183.904C445.38 179.488 443.652 174.208 442.692 168.064C441.924 161.92 441.252 155.104 440.676 147.616C440.484 145.312 440.292 142.912 440.1 140.416C439.908 137.92 439.62 135.328 439.236 132.64C438.276 124.384 436.26 117.952 433.188 113.344C430.308 108.736 426.66 105.376 422.244 103.264C418.02 100.96 413.22 99.616 407.844 99.232C402.468 98.656 396.9 98.368 391.14 98.368V191.104ZM391.14 8.79999V93.76H400.356C405.732 93.76 411.012 92.992 416.196 91.456C421.572 89.92 426.276 87.52 430.308 84.256C434.34 80.8 437.604 76.48 440.1 71.296C442.596 65.92 443.844 59.392 443.844 51.712C443.844 43.072 442.692 35.968 440.388 30.4C438.084 24.832 434.916 20.512 430.884 17.44C426.852 14.176 422.148 11.968 416.772 10.816C411.396 9.47199 405.636 8.79999 399.492 8.79999H391.14ZM590.438 0.159998C601.382 0.159998 611.366 3.13599 620.39 9.08799C629.606 14.848 637.478 22.528 644.006 32.128C650.726 41.536 655.91 52.288 659.558 64.384C663.206 76.288 665.03 88.288 665.03 100.384C665.03 112.672 663.206 124.768 659.558 136.672C655.91 148.384 650.726 158.944 644.006 168.352C637.478 177.568 629.606 185.056 620.39 190.816C611.366 196.576 601.382 199.456 590.438 199.456C579.302 199.456 569.126 196.576 559.91 190.816C550.694 184.864 542.822 177.088 536.294 167.488C529.766 157.888 524.678 147.04 521.03 134.944C517.382 122.848 515.558 110.56 515.558 98.08C515.558 86.176 517.478 74.368 521.318 62.656C525.35 50.944 530.726 40.48 537.446 31.264C544.358 22.048 552.326 14.56 561.35 8.79999C570.374 3.04 580.07 0.159998 590.438 0.159998ZM591.014 4.76799C584.87 4.76799 579.59 6.39999 575.174 9.664C570.758 12.736 567.014 16.96 563.942 22.336C560.87 27.52 558.374 33.472 556.454 40.192C554.726 46.72 553.286 53.536 552.134 60.64C551.174 67.552 550.502 74.464 550.118 81.376C549.734 88.096 549.542 94.144 549.542 99.52C549.542 105.088 549.638 111.328 549.83 118.24C550.214 124.96 550.886 131.872 551.846 138.976C552.806 145.888 554.15 152.704 555.878 159.424C557.606 166.144 559.91 172.192 562.79 177.568C565.862 182.752 569.606 186.976 574.022 190.24C578.438 193.312 583.814 194.848 590.15 194.848C596.486 194.848 601.862 193.216 606.278 189.952C610.694 186.688 614.342 182.464 617.222 177.28C620.102 171.904 622.31 165.856 623.846 159.136C625.382 152.224 626.534 145.312 627.302 138.4C628.07 131.296 628.55 124.384 628.742 117.664C628.934 110.752 629.03 104.608 629.03 99.232C629.03 94.432 628.838 88.768 628.454 82.24C628.262 75.712 627.686 68.992 626.726 62.08C625.766 55.168 624.422 48.256 622.694 41.344C621.158 34.432 618.95 28.288 616.07 22.912C613.19 17.536 609.734 13.216 605.702 9.95199C601.67 6.49599 596.774 4.76799 591.014 4.76799ZM730.327 191.104H747.895V196H682.807V191.104H698.647V8.79999H682.807V3.90398H766.039C772.375 3.90398 778.615 4.67199 784.759 6.20799C790.903 7.74399 796.279 10.336 800.887 13.984C805.687 17.44 809.527 22.144 812.407 28.096C815.479 33.856 817.015 41.152 817.015 49.984C817.015 56.704 815.959 62.56 813.847 67.552C811.927 72.544 809.239 76.864 805.783 80.512C802.327 83.968 798.295 86.848 793.687 89.152C789.079 91.456 784.183 93.184 778.999 94.336V97.504C787.063 99.616 793.303 103.072 797.719 107.872C802.327 112.48 805.783 117.76 808.087 123.712C810.391 129.664 811.831 136 812.407 142.72C812.983 149.248 813.367 155.488 813.559 161.44C813.751 165.664 813.943 169.696 814.135 173.536C814.519 177.184 815.095 180.448 815.863 183.328C816.631 186.016 817.783 188.224 819.319 189.952C820.855 191.488 822.967 192.256 825.655 192.256C827.383 192.256 829.015 192.064 830.551 191.68C832.087 191.104 833.623 190.528 835.159 189.952C835.351 189.952 835.543 189.856 835.735 189.664L837.463 193.984C834.199 195.52 830.935 196.576 827.671 197.152C824.599 197.728 821.431 198.016 818.167 198.016C809.719 198.016 803.095 196.768 798.295 194.272C793.495 191.776 789.751 188.32 787.063 183.904C784.567 179.488 782.839 174.208 781.879 168.064C781.111 161.92 780.439 155.104 779.863 147.616C779.671 145.312 779.479 142.912 779.287 140.416C779.095 137.92 778.807 135.328 778.423 132.64C777.463 124.384 775.447 117.952 772.375 113.344C769.495 108.736 765.847 105.376 761.431 103.264C757.207 100.96 752.407 99.616 747.031 99.232C741.655 98.656 736.087 98.368 730.327 98.368V191.104ZM730.327 8.79999V93.76H739.543C744.919 93.76 750.199 92.992 755.383 91.456C760.759 89.92 765.463 87.52 769.495 84.256C773.527 80.8 776.791 76.48 779.287 71.296C781.783 65.92 783.031 59.392 783.031 51.712C783.031 43.072 781.879 35.968 779.575 30.4C777.271 24.832 774.103 20.512 770.071 17.44C766.039 14.176 761.335 11.968 755.959 10.816C750.583 9.47199 744.823 8.79999 738.679 8.79999H730.327ZM841.497 191.104C845.722 191.104 849.178 190.816 851.866 190.24C854.554 189.664 856.762 188.608 858.49 187.072C860.218 185.536 861.658 183.328 862.81 180.448C863.962 177.376 865.306 173.536 866.842 168.928C875.098 140.896 883.45 112.96 891.898 85.12C900.346 57.088 908.794 29.056 917.242 1.02399H927.034L988.377 191.104H1001.05V196H932.218V191.104H951.514L933.082 133.216H882.97L880.953 138.976C879.994 141.856 878.842 145.504 877.498 149.92C876.154 154.336 874.81 158.752 873.466 163.168C872.314 167.584 871.258 171.616 870.298 175.264C869.338 178.912 868.858 181.408 868.858 182.752C868.858 185.056 869.722 186.784 871.45 187.936C873.37 189.088 875.578 189.952 878.074 190.528C880.57 190.912 883.066 191.104 885.562 191.104C888.25 191.104 890.362 191.104 891.898 191.104H892.474V196H841.497V191.104ZM884.41 128.32H931.642L907.45 52.864L884.41 128.32Z" fill="white"/>
</svg>
