<svg width="215" height="34" viewBox="0 0 215 34" fill="none" xmlns="http://www.w3.org/2000/svg">
<path d="M13.448 0.36C15.272 0.36 16.936 0.855999 18.44 1.848C19.976 2.808 21.288 4.088 22.376 5.688C23.496 7.256 24.36 9.048 24.968 11.064C25.576 13.048 25.88 15.048 25.88 17.064C25.88 19.112 25.576 21.128 24.968 23.112C24.36 25.064 23.496 26.824 22.376 28.392C21.288 29.928 19.976 31.176 18.44 32.136C16.936 33.096 15.272 33.576 13.448 33.576C11.592 33.576 9.896 33.096 8.36 32.136C6.824 31.144 5.512 29.848 4.424 28.248C3.336 26.648 2.488 24.84 1.88 22.824C1.272 20.808 0.968 18.76 0.968 16.68C0.968 14.696 1.288 12.728 1.928 10.776C2.6 8.824 3.496 7.08 4.616 5.544C5.768 4.008 7.096 2.76 8.6 1.8C10.104 0.839999 11.72 0.36 13.448 0.36ZM13.544 1.128C12.52 1.128 11.64 1.4 10.904 1.944C10.168 2.456 9.544 3.16 9.032 4.056C8.52 4.92 8.104 5.912 7.784 7.032C7.496 8.12 7.256 9.256 7.064 10.44C6.904 11.592 6.792 12.744 6.728 13.896C6.664 15.016 6.632 16.024 6.632 16.92C6.632 17.848 6.648 18.888 6.68 20.04C6.744 21.16 6.856 22.312 7.016 23.496C7.176 24.648 7.4 25.784 7.688 26.904C7.976 28.024 8.36 29.032 8.84 29.928C9.352 30.792 9.976 31.496 10.712 32.04C11.448 32.552 12.344 32.808 13.4 32.808C14.456 32.808 15.352 32.536 16.088 31.992C16.824 31.448 17.432 30.744 17.912 29.88C18.392 28.984 18.76 27.976 19.016 26.856C19.272 25.704 19.464 24.552 19.592 23.4C19.72 22.216 19.8 21.064 19.832 19.944C19.864 18.792 19.88 17.768 19.88 16.872C19.88 16.072 19.848 15.128 19.784 14.04C19.752 12.952 19.656 11.832 19.496 10.68C19.336 9.528 19.112 8.376 18.824 7.224C18.568 6.072 18.2 5.048 17.72 4.152C17.24 3.256 16.664 2.536 15.992 1.992C15.32 1.416 14.504 1.128 13.544 1.128ZM57.1149 1.8H56.3469C55.7069 1.8 55.1789 1.816 54.7629 1.848C54.3789 1.88 54.0589 2.024 53.8029 2.28C53.5789 2.504 53.4189 2.888 53.3229 3.432C53.2589 3.976 53.2269 4.744 53.2269 5.736V22.104C53.2269 26.264 52.3789 29.24 50.6829 31.032C49.0189 32.792 46.5069 33.672 43.1469 33.672C42.0909 33.672 40.9229 33.592 39.6429 33.432C38.3949 33.272 37.1949 32.952 36.0429 32.472C34.9229 31.96 33.9309 31.256 33.0669 30.36C32.2349 29.464 31.7229 28.28 31.5309 26.808C31.4669 26.456 31.4349 26.008 31.4349 25.464C31.4349 24.92 31.4349 24.328 31.4349 23.688V1.8H28.4109V0.983997H40.5549V1.8H37.4829V22.488C37.4829 23.96 37.5629 25.32 37.7229 26.568C37.9149 27.784 38.2509 28.84 38.7309 29.736C39.2429 30.632 39.9309 31.336 40.7949 31.848C41.6589 32.36 42.7629 32.616 44.1069 32.616C45.5789 32.616 46.8269 32.36 47.8509 31.848C48.9069 31.304 49.7389 30.552 50.3469 29.592C50.9869 28.6 51.4509 27.416 51.7389 26.04C52.0269 24.632 52.1709 23.08 52.1709 21.384V5.736C52.1709 4.712 52.1069 3.928 51.9789 3.384C51.8829 2.84 51.7069 2.44 51.4509 2.184C51.1949 1.928 50.8589 1.784 50.4429 1.752C50.0269 1.72 49.5149 1.72 48.9069 1.752C48.7469 1.752 48.5709 1.768 48.3789 1.8C48.2189 1.8 48.0269 1.8 47.8029 1.8V0.983997H57.1149V1.8ZM66.6691 32.184H69.5971V33H58.7491V32.184H61.3891V1.8H58.7491V0.983997H72.6211C73.6771 0.983997 74.7171 1.112 75.7411 1.368C76.7651 1.624 77.6611 2.056 78.4291 2.664C79.2291 3.24 79.8691 4.024 80.3491 5.016C80.8611 5.976 81.1171 7.192 81.1171 8.664C81.1171 9.784 80.9411 10.76 80.5891 11.592C80.2691 12.424 79.8211 13.144 79.2451 13.752C78.6691 14.328 77.9971 14.808 77.2291 15.192C76.4611 15.576 75.6451 15.864 74.7811 16.056V16.584C76.1251 16.936 77.1651 17.512 77.9011 18.312C78.6691 19.08 79.2451 19.96 79.6291 20.952C80.0131 21.944 80.2531 23 80.3491 24.12C80.4451 25.208 80.5091 26.248 80.5411 27.24C80.5731 27.944 80.6051 28.616 80.6371 29.256C80.7011 29.864 80.7971 30.408 80.9251 30.888C81.0531 31.336 81.2451 31.704 81.5011 31.992C81.7571 32.248 82.1091 32.376 82.5571 32.376C82.8451 32.376 83.1171 32.344 83.3731 32.28C83.6291 32.184 83.8851 32.088 84.1411 31.992C84.1731 31.992 84.2051 31.976 84.2371 31.944L84.5251 32.664C83.9811 32.92 83.4371 33.096 82.8931 33.192C82.3811 33.288 81.8531 33.336 81.3091 33.336C79.9011 33.336 78.7971 33.128 77.9971 32.712C77.1971 32.296 76.5731 31.72 76.1251 30.984C75.7091 30.248 75.4211 29.368 75.2611 28.344C75.1331 27.32 75.0211 26.184 74.9251 24.936C74.8931 24.552 74.8611 24.152 74.8291 23.736C74.7971 23.32 74.7491 22.888 74.6851 22.44C74.5251 21.064 74.1891 19.992 73.6771 19.224C73.1971 18.456 72.5891 17.896 71.8531 17.544C71.1491 17.16 70.3491 16.936 69.4531 16.872C68.5571 16.776 67.6291 16.728 66.6691 16.728V32.184ZM66.6691 1.8V15.96H68.2051C69.1011 15.96 69.9811 15.832 70.8451 15.576C71.7411 15.32 72.5251 14.92 73.1971 14.376C73.8691 13.8 74.4131 13.08 74.8291 12.216C75.2451 11.32 75.4531 10.232 75.4531 8.952C75.4531 7.512 75.2611 6.328 74.8771 5.4C74.4931 4.472 73.9651 3.752 73.2931 3.24C72.6211 2.696 71.8371 2.328 70.9411 2.136C70.0451 1.912 69.0851 1.8 68.0611 1.8H66.6691ZM113.842 1.8H113.17C111.634 1.8 110.37 1.928 109.378 2.184C108.386 2.408 107.586 2.856 106.978 3.528C106.402 4.168 105.986 5.064 105.73 6.216C105.506 7.336 105.394 8.808 105.394 10.632H104.53C104.594 8.968 104.626 7.352 104.626 5.784C104.658 4.216 104.706 2.616 104.77 0.983997H128.53C128.562 2.616 128.578 4.216 128.578 5.784C128.61 7.352 128.642 8.968 128.674 10.632H127.906C127.906 8.68 127.778 7.128 127.522 5.976C127.266 4.792 126.818 3.896 126.178 3.288C125.57 2.648 124.722 2.248 123.634 2.088C122.578 1.896 121.202 1.8 119.506 1.8V32.184H122.77V33H110.434V32.184H113.842V1.8ZM138.676 32.04H143.332C144.804 32.04 146.164 32.008 147.412 31.944C148.692 31.848 149.796 31.544 150.724 31.032C151.652 30.488 152.388 29.64 152.932 28.488C153.476 27.336 153.748 25.688 153.748 23.544H154.564V33H130.468V32.184H132.868V1.8H130.468V0.983997H154.516L154.564 8.856H153.748C153.492 7.096 153.028 5.752 152.356 4.824C151.716 3.864 150.916 3.176 149.956 2.76C149.028 2.312 147.956 2.072 146.74 2.04C145.556 1.976 144.276 1.944 142.9 1.944H138.676V16.104H139.924C140.916 16.104 141.78 16.072 142.516 16.008C143.284 15.944 143.924 15.736 144.436 15.384C144.948 15.032 145.332 14.488 145.588 13.752C145.844 12.984 145.988 11.928 146.02 10.584H146.788V22.68H146.02C145.988 21.464 145.86 20.504 145.636 19.8C145.444 19.064 145.156 18.52 144.772 18.168C144.388 17.784 143.924 17.544 143.38 17.448C142.836 17.32 142.212 17.256 141.508 17.256H138.676V32.04ZM155.697 32.184C156.402 32.184 156.978 32.136 157.426 32.04C157.874 31.944 158.242 31.768 158.53 31.512C158.818 31.256 159.058 30.888 159.25 30.408C159.442 29.896 159.666 29.256 159.922 28.488C161.298 23.816 162.69 19.16 164.098 14.52C165.506 9.848 166.914 5.176 168.322 0.503998H169.954L180.177 32.184H182.29V33H170.818V32.184H174.034L170.962 22.536H162.61L162.273 23.496C162.114 23.976 161.922 24.584 161.698 25.32C161.474 26.056 161.25 26.792 161.026 27.528C160.834 28.264 160.658 28.936 160.498 29.544C160.338 30.152 160.258 30.568 160.258 30.792C160.258 31.176 160.402 31.464 160.69 31.656C161.01 31.848 161.378 31.992 161.794 32.088C162.21 32.152 162.626 32.184 163.042 32.184C163.49 32.184 163.842 32.184 164.098 32.184H164.194V33H155.697V32.184ZM162.85 21.72H170.722L166.69 9.144L162.85 21.72ZM182.488 32.136H182.68V31.848L182.488 32.136ZM182.68 33V32.136H183.256C184.056 32.168 184.76 32.12 185.368 31.992C186.008 31.864 186.376 31.368 186.472 30.504C186.504 30.216 186.536 29.624 186.568 28.728C186.6 27.8 186.616 26.696 186.616 25.416C186.648 24.104 186.664 22.664 186.664 21.096C186.664 19.496 186.664 17.88 186.664 16.248C186.664 14.488 186.648 12.76 186.616 11.064C186.616 9.336 186.6 7.8 186.568 6.456C186.568 5.112 186.536 4.024 186.472 3.192C186.44 2.328 186.392 1.864 186.328 1.8H182.824V0.983997H192.088L199.624 22.632L207.112 0.983997H214.984V1.8H212.392V32.184H214.984V33H203.896V32.136H206.584L206.632 6.504L206.248 6.408C204.776 10.76 203.288 15.112 201.784 19.464C200.312 23.784 198.808 28.12 197.272 32.472L187.864 5.832L187.48 5.928V27.768C187.48 28.696 187.48 29.352 187.48 29.736C187.48 30.12 187.512 30.44 187.576 30.696C187.608 31.08 187.752 31.384 188.008 31.608C188.264 31.8 188.568 31.944 188.92 32.04C189.304 32.136 189.688 32.184 190.072 32.184C190.488 32.184 190.888 32.184 191.272 32.184H191.608V33H182.68Z" fill="white"/>
</svg>
