<svg width="349" height="36" viewBox="0 0 349 36" fill="none" xmlns="http://www.w3.org/2000/svg">
<path d="M9.936 3.8H9.264C7.728 3.8 6.464 3.928 5.472 4.184C4.48 4.408 3.68 4.856 3.072 5.528C2.496 6.168 2.08 7.064 1.824 8.216C1.6 9.336 1.488 10.808 1.488 12.632H0.624C0.688 10.968 0.72 9.352 0.72 7.784C0.752 6.216 0.8 4.616 0.864 2.984H24.624C24.656 4.616 24.672 6.216 24.672 7.784C24.704 9.352 24.736 10.968 24.768 12.632H24C24 10.68 23.872 9.128 23.616 7.976C23.36 6.792 22.912 5.896 22.272 5.288C21.664 4.648 20.816 4.248 19.728 4.088C18.672 3.896 17.296 3.8 15.6 3.8V34.184H18.864V35H6.528V34.184H9.936V3.8ZM39.7136 2.36C41.5376 2.36 43.2016 2.856 44.7056 3.848C46.2416 4.808 47.5536 6.088 48.6416 7.688C49.7616 9.256 50.6256 11.048 51.2336 13.064C51.8416 15.048 52.1456 17.048 52.1456 19.064C52.1456 21.112 51.8416 23.128 51.2336 25.112C50.6256 27.064 49.7616 28.824 48.6416 30.392C47.5536 31.928 46.2416 33.176 44.7056 34.136C43.2016 35.096 41.5376 35.576 39.7136 35.576C37.8576 35.576 36.1616 35.096 34.6256 34.136C33.0896 33.144 31.7776 31.848 30.6896 30.248C29.6016 28.648 28.7536 26.84 28.1456 24.824C27.5376 22.808 27.2336 20.76 27.2336 18.68C27.2336 16.696 27.5536 14.728 28.1936 12.776C28.8656 10.824 29.7616 9.08 30.8816 7.544C32.0336 6.008 33.3616 4.76 34.8656 3.8C36.3696 2.84 37.9856 2.36 39.7136 2.36ZM39.8096 3.128C38.7856 3.128 37.9056 3.4 37.1696 3.944C36.4336 4.456 35.8096 5.16 35.2976 6.056C34.7856 6.92 34.3696 7.912 34.0496 9.032C33.7616 10.12 33.5216 11.256 33.3296 12.44C33.1696 13.592 33.0576 14.744 32.9936 15.896C32.9296 17.016 32.8976 18.024 32.8976 18.92C32.8976 19.848 32.9136 20.888 32.9456 22.04C33.0096 23.16 33.1216 24.312 33.2816 25.496C33.4416 26.648 33.6656 27.784 33.9536 28.904C34.2416 30.024 34.6256 31.032 35.1056 31.928C35.6176 32.792 36.2416 33.496 36.9776 34.04C37.7136 34.552 38.6096 34.808 39.6656 34.808C40.7216 34.808 41.6176 34.536 42.3536 33.992C43.0896 33.448 43.6976 32.744 44.1776 31.88C44.6576 30.984 45.0256 29.976 45.2816 28.856C45.5376 27.704 45.7296 26.552 45.8576 25.4C45.9856 24.216 46.0656 23.064 46.0976 21.944C46.1296 20.792 46.1456 19.768 46.1456 18.872C46.1456 18.072 46.1136 17.128 46.0496 16.04C46.0176 14.952 45.9216 13.832 45.7616 12.68C45.6016 11.528 45.3776 10.376 45.0896 9.224C44.8336 8.072 44.4656 7.048 43.9856 6.152C43.5056 5.256 42.9296 4.536 42.2576 3.992C41.5856 3.416 40.7696 3.128 39.8096 3.128ZM55.1085 2.984H65.0445C67.2845 2.984 69.4125 3.24 71.4285 3.752C73.4445 4.264 75.2045 5.144 76.7085 6.392C78.2445 7.608 79.4605 9.256 80.3565 11.336C81.2525 13.416 81.7005 16.008 81.7005 19.112C81.7005 22.152 81.2685 24.696 80.4045 26.744C79.5725 28.76 78.4205 30.376 76.9485 31.592C75.5085 32.808 73.8125 33.688 71.8605 34.232C69.9405 34.744 67.8765 35 65.6685 35H55.1085V34.184H57.8445V3.848H55.1085V2.984ZM63.5085 3.848V34.184C65.8125 34.184 67.7485 33.88 69.3165 33.272C70.8845 32.632 72.1485 31.672 73.1085 30.392C74.0685 29.112 74.7565 27.512 75.1725 25.592C75.5885 23.64 75.7965 21.352 75.7965 18.728C75.7965 16.584 75.5725 14.6 75.1245 12.776C74.6765 10.952 73.9885 9.384 73.0605 8.072C72.1645 6.728 71.0125 5.688 69.6045 4.952C68.2285 4.184 66.5965 3.8 64.7085 3.8L63.5085 3.848ZM83.1506 34.184C83.8546 34.184 84.4306 34.136 84.8786 34.04C85.3266 33.944 85.6946 33.768 85.9826 33.512C86.2706 33.256 86.5106 32.888 86.7026 32.408C86.8946 31.896 87.1186 31.256 87.3746 30.488C88.7506 25.816 90.1426 21.16 91.5506 16.52C92.9586 11.848 94.3666 7.176 95.7746 2.504H97.4066L107.631 34.184H109.743V35H98.2706V34.184H101.487L98.4146 24.536H90.0626L89.7266 25.496C89.5666 25.976 89.3746 26.584 89.1506 27.32C88.9266 28.056 88.7026 28.792 88.4786 29.528C88.2866 30.264 88.1106 30.936 87.9506 31.544C87.7906 32.152 87.7106 32.568 87.7106 32.792C87.7106 33.176 87.8546 33.464 88.1426 33.656C88.4626 33.848 88.8306 33.992 89.2466 34.088C89.6626 34.152 90.0786 34.184 90.4946 34.184C90.9426 34.184 91.2946 34.184 91.5506 34.184H91.6466V35H83.1506V34.184ZM90.3026 23.72H98.1746L94.1426 11.144L90.3026 23.72ZM125.109 2.984H133.605V3.752H132.597C132.149 3.752 131.781 3.8 131.493 3.896C131.205 3.96 130.933 4.12 130.677 4.376C130.453 4.6 130.229 4.936 130.005 5.384C129.813 5.832 129.573 6.408 129.285 7.112L123.285 22.232V34.184H126.357V35H115.077V34.184H118.101V23.336L110.565 3.8H108.021V2.984H119.493V3.8H116.469L122.853 20.408L127.509 9.032C127.605 8.84 127.717 8.568 127.845 8.216C127.973 7.832 128.101 7.448 128.229 7.064C128.357 6.648 128.469 6.264 128.565 5.912C128.661 5.528 128.709 5.224 128.709 5C128.709 4.456 128.453 4.12 127.941 3.992C127.461 3.832 126.933 3.752 126.357 3.752C126.133 3.752 125.925 3.768 125.733 3.8C125.541 3.8 125.365 3.8 125.205 3.8H125.109V2.984ZM140.152 1.256C139.864 2.376 139.496 3.592 139.048 4.904C138.6 6.216 138.104 7.528 137.56 8.84C137.048 10.12 136.536 11.336 136.024 12.488H132.904C133.128 11.592 133.352 10.632 133.576 9.608C133.832 8.584 134.056 7.56 134.248 6.536C134.472 5.48 134.664 4.456 134.824 3.464C135.016 2.472 135.176 1.56 135.304 0.727998H139.816L140.152 1.256ZM143.167 23.576H143.887C144.015 25.208 144.271 26.696 144.655 28.04C145.039 29.352 145.583 30.488 146.287 31.448C147.023 32.408 147.935 33.16 149.023 33.704C150.111 34.216 151.407 34.472 152.911 34.472C153.839 34.472 154.671 34.328 155.407 34.04C156.175 33.752 156.799 33.352 157.279 32.84C157.791 32.296 158.127 31.656 158.287 30.92C158.479 30.184 158.463 29.384 158.239 28.52C157.983 27.592 157.359 26.84 156.367 26.264C155.407 25.688 154.271 25.096 152.959 24.488C151.839 23.976 150.687 23.416 149.503 22.808C148.351 22.2 147.279 21.448 146.287 20.552C145.295 19.624 144.479 18.52 143.839 17.24C143.231 15.96 142.927 14.392 142.927 12.536C142.927 12.248 142.927 11.928 142.927 11.576C142.959 11.224 143.007 10.872 143.071 10.52C143.423 7.928 144.303 6.008 145.711 4.76C147.119 3.48 149.023 2.776 151.423 2.648C152.767 2.616 153.887 2.824 154.783 3.272C155.679 3.72 156.415 4.152 156.991 4.568C157.535 5.016 157.983 5.24 158.335 5.24C158.783 5.24 159.055 5.032 159.151 4.616C159.247 4.168 159.295 3.752 159.295 3.368H160.063V13.016H159.247C159.023 11.608 158.719 10.328 158.335 9.176C157.951 7.992 157.439 7 156.799 6.2C156.191 5.368 155.439 4.728 154.543 4.28C153.647 3.832 152.575 3.608 151.327 3.608C150.495 3.608 149.695 3.72 148.927 3.944C148.159 4.168 147.487 4.52 146.911 5C146.367 5.448 145.935 6.04 145.615 6.776C145.327 7.512 145.215 8.392 145.279 9.416C145.343 10.28 145.567 11.032 145.951 11.672C146.335 12.28 146.831 12.824 147.439 13.304C148.047 13.752 148.735 14.152 149.503 14.504C150.271 14.856 151.071 15.192 151.903 15.512C152.959 15.928 154.015 16.408 155.071 16.952C156.159 17.464 157.151 18.12 158.047 18.92C158.975 19.688 159.743 20.632 160.351 21.752C160.991 22.872 161.391 24.232 161.551 25.832C161.615 27.304 161.423 28.648 160.975 29.864C160.559 31.048 159.951 32.072 159.151 32.936C158.383 33.8 157.439 34.472 156.319 34.952C155.231 35.4 154.047 35.624 152.767 35.624C151.519 35.624 150.415 35.432 149.455 35.048C148.495 34.696 147.663 34.344 146.959 33.992C146.575 33.768 146.207 33.592 145.855 33.464C145.535 33.304 145.215 33.224 144.895 33.224C144.543 33.224 144.287 33.48 144.127 33.992C143.999 34.504 143.919 34.952 143.887 35.336H143.167V23.576ZM184.182 23.576H184.902C185.03 25.208 185.286 26.696 185.67 28.04C186.054 29.352 186.598 30.488 187.302 31.448C188.038 32.408 188.95 33.16 190.038 33.704C191.126 34.216 192.422 34.472 193.926 34.472C194.854 34.472 195.686 34.328 196.422 34.04C197.19 33.752 197.814 33.352 198.294 32.84C198.806 32.296 199.142 31.656 199.302 30.92C199.494 30.184 199.478 29.384 199.254 28.52C198.998 27.592 198.374 26.84 197.382 26.264C196.422 25.688 195.286 25.096 193.974 24.488C192.854 23.976 191.702 23.416 190.518 22.808C189.366 22.2 188.294 21.448 187.302 20.552C186.31 19.624 185.494 18.52 184.854 17.24C184.246 15.96 183.942 14.392 183.942 12.536C183.942 12.248 183.942 11.928 183.942 11.576C183.974 11.224 184.022 10.872 184.086 10.52C184.438 7.928 185.318 6.008 186.726 4.76C188.134 3.48 190.038 2.776 192.438 2.648C193.782 2.616 194.902 2.824 195.798 3.272C196.694 3.72 197.43 4.152 198.006 4.568C198.55 5.016 198.998 5.24 199.35 5.24C199.798 5.24 200.07 5.032 200.166 4.616C200.262 4.168 200.31 3.752 200.31 3.368H201.078V13.016H200.262C200.038 11.608 199.734 10.328 199.35 9.176C198.966 7.992 198.454 7 197.814 6.2C197.206 5.368 196.454 4.728 195.558 4.28C194.662 3.832 193.59 3.608 192.342 3.608C191.51 3.608 190.71 3.72 189.942 3.944C189.174 4.168 188.502 4.52 187.926 5C187.382 5.448 186.95 6.04 186.63 6.776C186.342 7.512 186.23 8.392 186.294 9.416C186.358 10.28 186.582 11.032 186.966 11.672C187.35 12.28 187.846 12.824 188.454 13.304C189.062 13.752 189.75 14.152 190.518 14.504C191.286 14.856 192.086 15.192 192.918 15.512C193.974 15.928 195.03 16.408 196.086 16.952C197.174 17.464 198.166 18.12 199.062 18.92C199.99 19.688 200.758 20.632 201.366 21.752C202.006 22.872 202.406 24.232 202.566 25.832C202.63 27.304 202.438 28.648 201.99 29.864C201.574 31.048 200.966 32.072 200.166 32.936C199.398 33.8 198.454 34.472 197.334 34.952C196.246 35.4 195.062 35.624 193.782 35.624C192.534 35.624 191.43 35.432 190.47 35.048C189.51 34.696 188.678 34.344 187.974 33.992C187.59 33.768 187.222 33.592 186.87 33.464C186.55 33.304 186.23 33.224 185.91 33.224C185.558 33.224 185.302 33.48 185.142 33.992C185.014 34.504 184.934 34.952 184.902 35.336H184.182V23.576ZM214.217 3.8H213.545C212.009 3.8 210.745 3.928 209.753 4.184C208.761 4.408 207.961 4.856 207.353 5.528C206.777 6.168 206.361 7.064 206.105 8.216C205.881 9.336 205.769 10.808 205.769 12.632H204.905C204.969 10.968 205.001 9.352 205.001 7.784C205.033 6.216 205.081 4.616 205.145 2.984H228.905C228.937 4.616 228.953 6.216 228.953 7.784C228.985 9.352 229.017 10.968 229.049 12.632H228.281C228.281 10.68 228.153 9.128 227.897 7.976C227.641 6.792 227.193 5.896 226.553 5.288C225.945 4.648 225.097 4.248 224.009 4.088C222.953 3.896 221.577 3.8 219.881 3.8V34.184H223.145V35H210.809V34.184H214.217V3.8ZM243.995 2.36C245.819 2.36 247.483 2.856 248.987 3.848C250.523 4.808 251.835 6.088 252.923 7.688C254.043 9.256 254.907 11.048 255.515 13.064C256.123 15.048 256.427 17.048 256.427 19.064C256.427 21.112 256.123 23.128 255.515 25.112C254.907 27.064 254.043 28.824 252.923 30.392C251.835 31.928 250.523 33.176 248.987 34.136C247.483 35.096 245.819 35.576 243.995 35.576C242.139 35.576 240.443 35.096 238.907 34.136C237.371 33.144 236.059 31.848 234.971 30.248C233.883 28.648 233.035 26.84 232.427 24.824C231.819 22.808 231.515 20.76 231.515 18.68C231.515 16.696 231.835 14.728 232.475 12.776C233.147 10.824 234.043 9.08 235.163 7.544C236.315 6.008 237.643 4.76 239.147 3.8C240.651 2.84 242.267 2.36 243.995 2.36ZM244.091 3.128C243.067 3.128 242.187 3.4 241.451 3.944C240.715 4.456 240.091 5.16 239.579 6.056C239.067 6.92 238.651 7.912 238.331 9.032C238.043 10.12 237.803 11.256 237.611 12.44C237.451 13.592 237.339 14.744 237.275 15.896C237.211 17.016 237.179 18.024 237.179 18.92C237.179 19.848 237.195 20.888 237.227 22.04C237.291 23.16 237.403 24.312 237.563 25.496C237.723 26.648 237.947 27.784 238.235 28.904C238.523 30.024 238.907 31.032 239.387 31.928C239.899 32.792 240.523 33.496 241.259 34.04C241.995 34.552 242.891 34.808 243.947 34.808C245.003 34.808 245.899 34.536 246.635 33.992C247.371 33.448 247.979 32.744 248.459 31.88C248.939 30.984 249.307 29.976 249.563 28.856C249.819 27.704 250.011 26.552 250.139 25.4C250.267 24.216 250.347 23.064 250.379 21.944C250.411 20.792 250.427 19.768 250.427 18.872C250.427 18.072 250.395 17.128 250.331 16.04C250.299 14.952 250.203 13.832 250.043 12.68C249.883 11.528 249.659 10.376 249.371 9.224C249.115 8.072 248.747 7.048 248.267 6.152C247.787 5.256 247.211 4.536 246.539 3.992C245.867 3.416 245.051 3.128 244.091 3.128ZM267.31 34.184H270.238V35H259.39V34.184H262.03V3.8H259.39V2.984H273.262C274.318 2.984 275.358 3.112 276.382 3.368C277.406 3.624 278.302 4.056 279.07 4.664C279.87 5.24 280.51 6.024 280.99 7.016C281.502 7.976 281.758 9.192 281.758 10.664C281.758 11.784 281.582 12.76 281.23 13.592C280.91 14.424 280.462 15.144 279.886 15.752C279.31 16.328 278.638 16.808 277.87 17.192C277.102 17.576 276.286 17.864 275.422 18.056V18.584C276.766 18.936 277.806 19.512 278.542 20.312C279.31 21.08 279.886 21.96 280.27 22.952C280.654 23.944 280.894 25 280.99 26.12C281.086 27.208 281.15 28.248 281.182 29.24C281.214 29.944 281.246 30.616 281.278 31.256C281.342 31.864 281.438 32.408 281.566 32.888C281.694 33.336 281.886 33.704 282.142 33.992C282.398 34.248 282.75 34.376 283.198 34.376C283.486 34.376 283.758 34.344 284.014 34.28C284.27 34.184 284.526 34.088 284.782 33.992C284.814 33.992 284.846 33.976 284.878 33.944L285.166 34.664C284.622 34.92 284.078 35.096 283.534 35.192C283.022 35.288 282.494 35.336 281.95 35.336C280.542 35.336 279.438 35.128 278.638 34.712C277.838 34.296 277.214 33.72 276.766 32.984C276.35 32.248 276.062 31.368 275.902 30.344C275.774 29.32 275.662 28.184 275.566 26.936C275.534 26.552 275.502 26.152 275.47 25.736C275.438 25.32 275.39 24.888 275.326 24.44C275.166 23.064 274.83 21.992 274.318 21.224C273.838 20.456 273.23 19.896 272.494 19.544C271.79 19.16 270.99 18.936 270.094 18.872C269.198 18.776 268.27 18.728 267.31 18.728V34.184ZM267.31 3.8V17.96H268.846C269.742 17.96 270.622 17.832 271.486 17.576C272.382 17.32 273.166 16.92 273.838 16.376C274.51 15.8 275.054 15.08 275.47 14.216C275.886 13.32 276.094 12.232 276.094 10.952C276.094 9.512 275.902 8.328 275.518 7.4C275.134 6.472 274.606 5.752 273.934 5.24C273.262 4.696 272.478 4.328 271.582 4.136C270.686 3.912 269.726 3.8 268.702 3.8H267.31ZM287.566 2.984H299.518V3.8H296.062V34.184H299.518V35H287.566V34.184H290.59V3.8H287.566V2.984ZM310.348 34.04H315.004C316.476 34.04 317.836 34.008 319.084 33.944C320.364 33.848 321.468 33.544 322.396 33.032C323.324 32.488 324.06 31.64 324.604 30.488C325.148 29.336 325.42 27.688 325.42 25.544H326.236V35H302.14V34.184H304.54V3.8H302.14V2.984H326.188L326.236 10.856H325.42C325.164 9.096 324.7 7.752 324.028 6.824C323.388 5.864 322.588 5.176 321.628 4.76C320.7 4.312 319.628 4.072 318.412 4.04C317.228 3.976 315.948 3.944 314.572 3.944H310.348V18.104H311.596C312.588 18.104 313.452 18.072 314.188 18.008C314.956 17.944 315.596 17.736 316.108 17.384C316.62 17.032 317.004 16.488 317.26 15.752C317.516 14.984 317.66 13.928 317.692 12.584H318.46V24.68H317.692C317.66 23.464 317.532 22.504 317.308 21.8C317.116 21.064 316.828 20.52 316.444 20.168C316.06 19.784 315.596 19.544 315.052 19.448C314.508 19.32 313.884 19.256 313.18 19.256H310.348V34.04ZM330.057 23.576H330.777C330.905 25.208 331.161 26.696 331.545 28.04C331.929 29.352 332.473 30.488 333.177 31.448C333.913 32.408 334.825 33.16 335.913 33.704C337.001 34.216 338.297 34.472 339.801 34.472C340.729 34.472 341.561 34.328 342.297 34.04C343.065 33.752 343.689 33.352 344.169 32.84C344.681 32.296 345.017 31.656 345.177 30.92C345.369 30.184 345.353 29.384 345.129 28.52C344.873 27.592 344.249 26.84 343.257 26.264C342.297 25.688 341.161 25.096 339.849 24.488C338.729 23.976 337.577 23.416 336.393 22.808C335.241 22.2 334.169 21.448 333.177 20.552C332.185 19.624 331.369 18.52 330.729 17.24C330.121 15.96 329.817 14.392 329.817 12.536C329.817 12.248 329.817 11.928 329.817 11.576C329.849 11.224 329.897 10.872 329.961 10.52C330.313 7.928 331.193 6.008 332.601 4.76C334.009 3.48 335.913 2.776 338.313 2.648C339.657 2.616 340.777 2.824 341.673 3.272C342.569 3.72 343.305 4.152 343.881 4.568C344.425 5.016 344.873 5.24 345.225 5.24C345.673 5.24 345.945 5.032 346.041 4.616C346.137 4.168 346.185 3.752 346.185 3.368H346.953V13.016H346.137C345.913 11.608 345.609 10.328 345.225 9.176C344.841 7.992 344.329 7 343.689 6.2C343.081 5.368 342.329 4.728 341.433 4.28C340.537 3.832 339.465 3.608 338.217 3.608C337.385 3.608 336.585 3.72 335.817 3.944C335.049 4.168 334.377 4.52 333.801 5C333.257 5.448 332.825 6.04 332.505 6.776C332.217 7.512 332.105 8.392 332.169 9.416C332.233 10.28 332.457 11.032 332.841 11.672C333.225 12.28 333.721 12.824 334.329 13.304C334.937 13.752 335.625 14.152 336.393 14.504C337.161 14.856 337.961 15.192 338.793 15.512C339.849 15.928 340.905 16.408 341.961 16.952C343.049 17.464 344.041 18.12 344.937 18.92C345.865 19.688 346.633 20.632 347.241 21.752C347.881 22.872 348.281 24.232 348.441 25.832C348.505 27.304 348.313 28.648 347.865 29.864C347.449 31.048 346.841 32.072 346.041 32.936C345.273 33.8 344.329 34.472 343.209 34.952C342.121 35.4 340.937 35.624 339.657 35.624C338.409 35.624 337.305 35.432 336.345 35.048C335.385 34.696 334.553 34.344 333.849 33.992C333.465 33.768 333.097 33.592 332.745 33.464C332.425 33.304 332.105 33.224 331.785 33.224C331.433 33.224 331.177 33.48 331.017 33.992C330.889 34.504 330.809 34.952 330.777 35.336H330.057V23.576Z" fill="#020202"/>
</svg>
